HIERARCHY
ROOT Hips
{
  OFFSET -22.0418 94.6069 -23.8844
  CHANNELS 6 Xposition Yposition Zposition Zrotation Xrotation Yrotation
  JOINT LeftUpLeg
  {
    OFFSET 8.91 -6.27 -2.145
    CHANNELS 3 Zrotation Xrotation Yrotation
    JOINT LeftUpLegRoll
    {
      OFFSET 0 -22.7323 0
      CHANNELS 3 Zrotation Xrotation Yrotation
      JOINT LeftLeg
      {
        OFFSET 0 -22.1464 0
        CHANNELS 3 Zrotation Xrotation Yrotation
        JOINT LeftLegRoll
        {
          OFFSET 0 -22.0919 0
          CHANNELS 3 Zrotation Xrotation Yrotation
          JOINT LeftFoot
          {
            OFFSET 0 -18.609 0
            CHANNELS 3 Zrotation Xrotation Yrotation
            JOINT LeftToeBase
            {
              OFFSET 0 -6.26232 12.9547
              CHANNELS 3 Zrotation Xrotation Yrotation
              End Site
              {
                OFFSET 0 0 5.96686
              }
            }
          }
        }
      }
    }
  }
  JOINT RightUpLeg
  {
    OFFSET -8.91 -6.27 -2.145
    CHANNELS 3 Zrotation Xrotation Yrotation
    JOINT RightUpLegRoll
    {
      OFFSET 0 -22.7323 0
      CHANNELS 3 Zrotation Xrotation Yrotation
      JOINT RightLeg
      {
        OFFSET 0 -22.1464 0
        CHANNELS 3 Zrotation Xrotation Yrotation
        JOINT RightLegRoll
        {
          OFFSET 0 -22.0919 0
          CHANNELS 3 Zrotation Xrotation Yrotation
          JOINT RightFoot
          {
            OFFSET 0 -18.609 0
            CHANNELS 3 Zrotation Xrotation Yrotation
            JOINT RightToeBase
            {
              OFFSET 0 -6.26232 12.9547
              CHANNELS 3 Zrotation Xrotation Yrotation
              End Site
              {
                OFFSET 0 0.000942417 5.96686
              }
            }
          }
        }
      }
    }
  }
  JOINT Spine
  {
    OFFSET 0 7.43174 -2.06162
    CHANNELS 3 Zrotation Xrotation Yrotation
    JOINT Spine1
    {
      OFFSET -1.68772e-005 12.1899 -1.41951
      CHANNELS 3 Zrotation Xrotation Yrotation
      JOINT Spine2
      {
        OFFSET 0 11.8846 -1.0903
        CHANNELS 3 Zrotation Xrotation Yrotation
        JOINT Spine3
        {
          OFFSET 1.84329e-005 10.5137 1.04001
          CHANNELS 3 Zrotation Xrotation Yrotation
          JOINT LeftShoulder
          {
            OFFSET 7 4.56855 2.0674
            CHANNELS 3 Zrotation Xrotation Yrotation
            JOINT LeftArm
            {
              OFFSET 10.7073 0 0
              CHANNELS 3 Zrotation Xrotation Yrotation
              JOINT LeftArmRoll
              {
                OFFSET 15.2612 0 0
                CHANNELS 3 Zrotation Xrotation Yrotation
                JOINT LeftForeArm
                {
                  OFFSET 12.0443 0 0
                  CHANNELS 3 Zrotation Xrotation Yrotation
                  JOINT LeftForeArmRoll
                  {
                    OFFSET 16.3277 0 0
                    CHANNELS 3 Zrotation Xrotation Yrotation
                    JOINT LeftHand
                    {
                      OFFSET 10.3694 0 0
                      CHANNELS 3 Zrotation Xrotation Yrotation
                      JOINT LeftHandThumb1
                      {
                        OFFSET 4.34876 -0.798502 4.28243
                        CHANNELS 3 Zrotation Xrotation Yrotation
                        JOINT LeftHandThumb2
                        {
                          OFFSET 2.51259 -0.536099 0.707454
                          CHANNELS 3 Zrotation Xrotation Yrotation
                          JOINT LeftHandThumb3
                          {
                            OFFSET 2.54314 0 0
                            CHANNELS 3 Zrotation Xrotation Yrotation
                            JOINT LeftHandThumb4
                            {
                              OFFSET 2.66675 0 0
                              CHANNELS 3 Zrotation Xrotation Yrotation
                              End Site
                              {
                                OFFSET 1 0 0
                              }
                            }
                          }
                        }
                      }
                      JOINT LeftHandIndex1
                      {
                        OFFSET 8.82198 0.199729 3.47167
                        CHANNELS 3 Zrotation Xrotation Yrotation
                        JOINT LeftHandIndex2
                        {
                          OFFSET 4.22532 0 -0.000262656
                          CHANNELS 3 Zrotation Xrotation Yrotation
                          JOINT LeftHandIndex3
                          {
                            OFFSET 2.65394 0 -0.00016516
                            CHANNELS 3 Zrotation Xrotation Yrotation
                            JOINT LeftHandIndex4
                            {
                              OFFSET 1.95822 0 -0.00012217
                              CHANNELS 3 Zrotation Xrotation Yrotation
                              End Site
                              {
                                OFFSET 1 0 0
                              }
                            }
                          }
                        }
                      }
                      JOINT LeftHandMiddle1
                      {
                        OFFSET 8.80988 0.50089 1.30468
                        CHANNELS 3 Zrotation Xrotation Yrotation
                        JOINT LeftHandMiddle2
                        {
                          OFFSET 4.86325 0 0
                          CHANNELS 3 Zrotation Xrotation Yrotation
                          JOINT LeftHandMiddle3
                          {
                            OFFSET 2.76524 0 0
                            CHANNELS 3 Zrotation Xrotation Yrotation
                            JOINT LeftHandMiddle4
                            {
                              OFFSET 2.00563 0 0
                              CHANNELS 3 Zrotation Xrotation Yrotation
                              End Site
                              {
                                OFFSET 1 0 0
                              }
                            }
                          }
                        }
                      }
                      JOINT LeftHandRing1
                      {
                        OFFSET 8.89376 0.37992 -0.793159
                        CHANNELS 3 Zrotation Xrotation Yrotation
                        JOINT LeftHandRing2
                        {
                          OFFSET 4.53776 0 -0.000282138
                          CHANNELS 3 Zrotation Xrotation Yrotation
                          JOINT LeftHandRing3
                          {
                            OFFSET 2.30453 0 -0.000143448
                            CHANNELS 3 Zrotation Xrotation Yrotation
                            JOINT LeftHandRing4
                            {
                              OFFSET 1.92335 0 -0.00012044
                              CHANNELS 3 Zrotation Xrotation Yrotation
                              End Site
                              {
                                OFFSET 1 0 0
                              }
                            }
                          }
                        }
                      }
                      JOINT LeftHandPinky1
                      {
                        OFFSET 8.88227 -0.313027 -2.49036
                        CHANNELS 3 Zrotation Xrotation Yrotation
                        JOINT LeftHandPinky2
                        {
                          OFFSET 3.0441 0 0
                          CHANNELS 3 Zrotation Xrotation Yrotation
                          JOINT LeftHandPinky3
                          {
                            OFFSET 1.9745 0 0
                            CHANNELS 3 Zrotation Xrotation Yrotation
                            JOINT LeftHandPinky4
                            {
                              OFFSET 1.66661 0 0
                              CHANNELS 3 Zrotation Xrotation Yrotation
                              End Site
                              {
                                OFFSET 1 0 0
                              }
                            }
                          }
                        }
                      }
                    }
                  }
                }
              }
            }
          }
          JOINT RightShoulder
          {
            OFFSET -7 4.56855 2.0673
            CHANNELS 3 Zrotation Xrotation Yrotation
            JOINT RightArm
            {
              OFFSET -10.7073 0 0
              CHANNELS 3 Zrotation Xrotation Yrotation
              JOINT RightArmRoll
              {
                OFFSET -15.2612 0 0
                CHANNELS 3 Zrotation Xrotation Yrotation
                JOINT RightForeArm
                {
                  OFFSET -12.0444 0 0
                  CHANNELS 3 Zrotation Xrotation Yrotation
                  JOINT RightForeArmRoll
                  {
                    OFFSET -16.3276 0 0
                    CHANNELS 3 Zrotation Xrotation Yrotation
                    JOINT RightHand
                    {
                      OFFSET -10.3694 0 0
                      CHANNELS 3 Zrotation Xrotation Yrotation
                      JOINT RightHandThumb1
                      {
                        OFFSET -4.34838 -0.798501 4.28282
                        CHANNELS 3 Zrotation Xrotation Yrotation
                        JOINT RightHandThumb2
                        {
                          OFFSET -2.51253 -0.536099 0.707679
                          CHANNELS 3 Zrotation Xrotation Yrotation
                          JOINT RightHandThumb3
                          {
                            OFFSET -2.54159 0 0.0888232
                            CHANNELS 3 Zrotation Xrotation Yrotation
                            JOINT RightHandThumb4
                            {
                              OFFSET -2.66512 0 0.0931403
                              CHANNELS 3 Zrotation Xrotation Yrotation
                              End Site
                              {
                                OFFSET 1 0 0
                              }
                            }
                          }
                        }
                      }
                      JOINT RightHandIndex1
                      {
                        OFFSET -8.82167 0.199732 3.47246
                        CHANNELS 3 Zrotation Xrotation Yrotation
                        JOINT RightHandIndex2
                        {
                          OFFSET -4.22532 0 0.0001146
                          CHANNELS 3 Zrotation Xrotation Yrotation
                          JOINT RightHandIndex3
                          {
                            OFFSET -2.65394 0 7.19601e-005
                            CHANNELS 3 Zrotation Xrotation Yrotation
                            JOINT RightHandIndex4
                            {
                              OFFSET -1.95822 0 5.30956e-005
                              CHANNELS 3 Zrotation Xrotation Yrotation
                              End Site
                              {
                                OFFSET 1 0 0
                              }
                            }
                          }
                        }
                      }
                      JOINT RightHandMiddle1
                      {
                        OFFSET -8.80976 0.500893 1.30547
                        CHANNELS 3 Zrotation Xrotation Yrotation
                        JOINT RightHandMiddle2
                        {
                          OFFSET -4.86325 0 0.000131881
                          CHANNELS 3 Zrotation Xrotation Yrotation
                          JOINT RightHandMiddle3
                          {
                            OFFSET -2.76524 0 7.49854e-005
                            CHANNELS 3 Zrotation Xrotation Yrotation
                            JOINT RightHandMiddle4
                            {
                              OFFSET -2.00563 0 5.43888e-005
                              CHANNELS 3 Zrotation Xrotation Yrotation
                              End Site
                              {
                                OFFSET 1 0 0
                              }
                            }
                          }
                        }
                      }
                      JOINT RightHandRing1
                      {
                        OFFSET -8.89383 0.379922 -0.792364
                        CHANNELS 3 Zrotation Xrotation Yrotation
                        JOINT RightHandRing2
                        {
                          OFFSET -4.53776 0 0.000123049
                          CHANNELS 3 Zrotation Xrotation Yrotation
                          JOINT RightHandRing3
                          {
                            OFFSET -2.30453 0 6.24859e-005
                            CHANNELS 3 Zrotation Xrotation Yrotation
                            JOINT RightHandRing4
                            {
                              OFFSET -1.92335 0 5.21537e-005
                              CHANNELS 3 Zrotation Xrotation Yrotation
                              End Site
                              {
                                OFFSET 1 0 0
                              }
                            }
                          }
                        }
                      }
                      JOINT RightHandPinky1
                      {
                        OFFSET -8.8825 -0.313025 -2.48956
                        CHANNELS 3 Zrotation Xrotation Yrotation
                        JOINT RightHandPinky2
                        {
                          OFFSET -3.0478 0 8.26466e-005
                          CHANNELS 3 Zrotation Xrotation Yrotation
                          JOINT RightHandPinky3
                          {
                            OFFSET -1.9769 0 5.36145e-005
                            CHANNELS 3 Zrotation Xrotation Yrotation
                            JOINT RightHandPinky4
                            {
                              OFFSET -1.66864 0 4.5245e-005
                              CHANNELS 3 Zrotation Xrotation Yrotation
                              End Site
                              {
                                OFFSET 1 0 0
                              }
                            }
                          }
                        }
                      }
                    }
                  }
                }
              }
            }
          }
          JOINT Neck
          {
            OFFSET 0 11.5156 1.94702
            CHANNELS 3 Zrotation Xrotation Yrotation
            JOINT Head
            {
              OFFSET -1.26215e-005 11.0733 1.65432
              CHANNELS 3 Zrotation Xrotation Yrotation
              End Site
              {
                OFFSET 0 17.7047 0
              }
            }
          }
        }
      }
    }
  }
}
MOTION
Frames:	6
Frame Time:	0.0333333
-24.3838 95.8418 -27.2177 0.438857 -1.80571 -0.831569 3.20568 -12.715 4.00872 8.4806e-020 -2.43933e-017 0.398389 3.77395e-007 36.4318 -8.20462 4.67784e-021 5.72904e-018 -0.0935655 -0.0826794 -19.8192 -0.0144443 3.74055 -0.50422 0.0329644 -5.48317 -14.1244 -5.29264 9.48022e-020 2.57909e-017 -0.421214 -7.04771e-007 36.9037 6.91494 2.23485e-020 1.25223e-017 -0.204512 1.12488 -18.811 0.190186 0.00319892 -1.15837e-006 6.46738e-011 -0.0391855 0.750934 0.628328 -0.584633 0.328137 0.512247 -0.586644 0.331334 0.507714 -0.58856 0.334591 0.503183 -2.41906 0 -19.7097 -67.9225 5.70026 15.3827 0 5.13357 0 8.12668 12.0406 -34.3927 0 -4.72213 0 -12.8568 2.40001 -21.0638 -11.1549 5.76273 12.9076 -33.033 -1.09055 1.67661 -36.761 0 0 0 0 0 -32.6017 -1.0779 0.768625 -123.167 0 0 -59.2777 0 0 0 0 0 -36.8107 -1.19866 5.70018 -121.96 0 0 -51.6564 0 0 0 0 0 -35.6523 -1.16604 0.154416 -113.12 0 0 -46.6402 0 0 0 0 0 -5.94989 -0.207401 3.42274 -105.959 0 0 -41.8592 0 0 0 0 0 12.8466 1.88929e-015 15.0656 64.3682 3.1566 -14.2803 2.5311e-016 2.06597 -4.5638e-018 -29.7149 35.712 44.356 -7.53454e-006 -1.49409 -2.7097e-006 -4.01185 -0.579355 16.4281 11.3294 5.42168 -10.9131 29.2193 -0.97661 -1.74543 24.8369 0 0 0 0 0 29.7912 -0.993986 -0.607046 112.622 0 0 52.9584 0 0 0 0 0 33.0111 -1.08992 -3.26718 111.073 0 0 51.0729 0 0 0 0 0 32.4514 -1.07348 1.33472 102.94 0 0 43.1189 0 0 0 0 0 5.88422 -0.20512 -2.10025 96.0519 0 0 38.4021 0 0 0 0 0 6.7576 -2.11837 -2.36445 -7.87252 9.33877 -12.5267 
-24.3716 95.8587 -27.1666 0.464897 -1.87266 -0.738542 3.11767 -12.5869 3.82281 7.74549e-020 -2.33121e-017 0.380731 9.78218e-008 36.3509 -8.12662 4.87648e-021 5.84942e-018 -0.0955314 -0.129464 -19.8119 -0.022609 3.78024 -0.506226 0.0334477 -5.54418 -13.9592 -5.37717 9.48022e-020 2.57909e-017 -0.421214 -4.25836e-007 36.8428 6.87292 2.16541e-020 1.23262e-017 -0.201309 1.15441 -18.8395 0.186831 0.013526 -9.47021e-007 2.23567e-010 -0.0525161 0.750952 0.613714 -0.598347 0.350945 0.499914 -0.600163 0.354087 0.495343 -0.601884 0.357286 0.490776 -2.3939 0 -19.6277 -68.0573 5.52276 15.4723 0 5.01954 0 7.83193 11.6117 -34.3481 0 -4.63964 0 -13.0632 2.46251 -21.2636 -11.1549 5.76273 12.9076 -33.033 -1.09055 1.67661 -36.761 0 0 0 0 0 -32.6017 -1.0779 0.768625 -123.167 0 0 -59.2777 0 0 0 0 0 -36.8107 -1.19866 5.70018 -121.96 0 0 -51.6564 0 0 0 0 0 -35.6523 -1.16604 0.154416 -113.12 0 0 -46.6402 0 0 0 0 0 -5.94989 -0.207401 3.42274 -105.959 0 0 -41.8592 0 0 0 0 0 12.8898 1.87664e-015 14.9891 64.5535 3.48521 -14.1563 2.73066e-016 2.2287 -5.31154e-018 -29.7055 35.753 44.3166 -7.53961e-006 -1.60139 -2.70984e-006 -3.8609 -0.557519 16.4275 11.3299 5.42418 -10.9251 29.2338 -0.977052 -1.74518 24.8887 0 0 0 0 0 29.808 -0.994495 -0.606754 112.685 0 0 52.9963 0 0 0 0 0 33.0334 -1.09057 -3.26987 111.138 0 0 51.0774 0 0 0 0 0 32.4731 -1.07412 1.33752 102.999 0 0 43.1375 0 0 0 0 0 5.88422 -0.205119 -2.0962 96.1094 0 0 38.4241 0 0 0 0 0 6.8293 -2.14997 -2.38207 -7.922 9.48314 -12.4845 
-24.3506 95.848 -27.1453 0.507655 -1.89617 -0.821131 3.10913 -12.5486 3.91392 8.19885e-020 -2.39847e-017 0.391715 4.64792e-007 36.4006 -8.30237 6.09587e-021 6.53999e-018 -0.10681 -0.251224 -19.8703 -0.0440045 4.01848 -0.455109 0.0319715 -5.63407 -13.9667 -5.45434 9.48022e-020 2.57909e-017 -0.421214 -3.05298e-007 36.9155 7.09419 2.55548e-020 1.33904e-017 -0.21869 1.09214 -18.8789 0.176886 -0.179264 -0.116758 -0.000365307 -0.0495286 0.75187 0.664554 -0.626623 0.345535 0.540606 -0.628621 0.349128 0.535793 -0.630512 0.352787 0.530987 -2.33736 0 -19.5222 -68.2006 5.60288 15.567 0 5.19874 0 7.83035 11.6188 -34.3266 0 -4.76882 0 -12.9088 2.41024 -21.0678 -11.1549 5.76273 12.9076 -33.033 -1.09055 1.67661 -36.761 0 0 0 0 0 -32.6017 -1.0779 0.768625 -123.167 0 0 -59.2777 0 0 0 0 0 -36.8107 -1.19866 5.70018 -121.96 0 0 -51.6564 0 0 0 0 0 -35.6523 -1.16604 0.154416 -113.12 0 0 -46.6402 0 0 0 0 0 -5.94989 -0.207401 3.42274 -105.959 0 0 -41.8592 0 0 0 0 0 12.9421 1.84947e-015 14.8174 64.6691 3.72186 -14.1569 2.91082e-016 2.37558 -6.03523e-018 -29.7306 35.8952 44.2472 -7.54353e-006 -1.68406 -2.70995e-006 -3.32415 -0.488688 16.7219 11.3266 5.43024 -10.9604 29.2764 -0.97835 -1.74446 25.0413 0 0 0 0 0 29.8575 -0.995992 -0.60967 112.87 0 0 53.1075 0 0 0 0 0 33.0986 -1.09247 -3.27779 111.328 0 0 51.0904 0 0 0 0 0 32.5371 -1.076 1.34574 103.171 0 0 43.192 0 0 0 0 0 5.88422 -0.20512 -2.08431 96.278 0 0 38.4886 0 0 0 0 0 6.76666 -2.1583 -2.36851 -7.66747 9.56445 -12.5884 
-24.354 95.8742 -27.1054 0.526609 -1.88925 -0.742286 3.07771 -12.4775 3.90729 8.04647e-020 -2.37607e-017 0.388058 -1.99905e-007 36.2538 -8.32808 6.19679e-021 6.59391e-018 -0.10769 -0.152503 -19.8017 -0.0266185 3.94792 -0.514342 0.035496 -5.64796 -13.8835 -5.44786 9.44223e-020 2.57391e-017 -0.42037 -6.97797e-007 36.8059 6.92234 2.48843e-020 1.32136e-017 -0.215802 1.16734 -18.8567 0.189157 -0.014993 -0.00918001 -2.40221e-006 -0.0739341 0.725099 0.666994 -0.632259 0.337109 0.543566 -0.634179 0.340629 0.538962 -0.635997 0.344214 0.534366 -2.32569 0 -19.4988 -68.3459 5.65823 15.6703 0 5.36419 0 8.28124 12.4743 -33.9736 0 -4.92638 0 -12.4048 2.32389 -21.1432 -11.1549 5.76273 12.9076 -33.033 -1.09055 1.67661 -36.761 0 0 0 0 0 -32.6017 -1.0779 0.768625 -123.167 0 0 -59.2777 0 0 0 0 0 -36.8107 -1.19866 5.70018 -121.96 0 0 -51.6564 0 0 0 0 0 -35.6523 -1.16604 0.154416 -113.12 0 0 -46.6402 0 0 0 0 0 -5.94989 -0.207401 3.42274 -105.959 0 0 -41.8592 0 0 0 0 0 13.0163 1.83361e-015 14.725 64.7155 3.77533 -14.3604 3.09743e-016 2.52769 -6.83349e-018 -29.8292 36.2497 44.1184 -7.54906e-006 -1.8011 -2.71012e-006 -3.57476 -0.513154 16.3328 11.3213 5.44009 -11.0177 29.3458 -0.980462 -1.74327 25.2911 0 0 0 0 0 29.9378 -0.998424 -0.614409 113.172 0 0 53.2884 0 0 0 0 0 33.2048 -1.09558 -3.29064 111.638 0 0 51.1116 0 0 0 0 0 32.6411 -1.07906 1.35912 103.45 0 0 43.2806 0 0 0 0 0 5.88422 -0.20512 -2.06497 96.5524 0 0 38.5936 0 0 0 0 0 6.80353 -2.05678 -2.38736 -7.6873 9.42506 -12.6178 
-24.3446 95.8641 -27.0725 0.545614 -1.92059 -0.691921 3.01043 -12.4468 3.7537 7.51118e-020 -2.29568e-017 0.374928 -2.08012e-007 36.2923 -8.19492 7.64362e-021 7.32333e-018 -0.119603 -0.220986 -19.8497 -0.0386671 3.97071 -0.487712 0.0338532 -5.67831 -13.8252 -5.47535 9.60929e-020 2.59658e-017 -0.424072 -5.69292e-007 36.8562 7.0009 2.70847e-020 1.37855e-017 -0.225142 1.13976 -18.9319 0.185343 -0.0967397 -0.0333864 -5.63705e-005 -0.046111 0.71119 0.693984 -0.591148 0.306388 0.567371 -0.59329 0.309933 0.563052 -0.595334 0.313541 0.558737 -2.62479 0 -19.4792 -68.6372 5.38392 15.9875 0 5.0392 0 7.81323 11.932 -33.5719 0 -4.67437 0 -12.8714 2.43246 -21.3184 -11.1549 5.76273 12.9076 -33.033 -1.09055 1.67661 -36.761 0 0 0 0 0 -32.6017 -1.0779 0.768625 -123.167 0 0 -59.2777 0 0 0 0 0 -36.8107 -1.19866 5.70018 -121.96 0 0 -51.6564 0 0 0 0 0 -35.6523 -1.16604 0.154416 -113.12 0 0 -46.6402 0 0 0 0 0 -5.94989 -0.207401 3.42274 -105.959 0 0 -41.8592 0 0 0 0 0 12.9873 1.83366e-015 14.72 64.63 3.54331 -14.7826 3.17925e-016 2.59436 -7.19908e-018 -29.8834 36.5811 43.9566 -7.55183e-006 -1.85947 -2.71021e-006 -3.69422 -0.524084 16.1434 11.3141 5.45353 -11.0959 29.4407 -0.983347 -1.74164 25.6352 0 0 0 0 0 30.0475 -1.00174 -0.62087 113.584 0 0 53.5353 0 0 0 0 0 33.3497 -1.09981 -3.30817 112.06 0 0 51.1405 0 0 0 0 0 32.7831 -1.08323 1.37738 103.832 0 0 43.4014 0 0 0 0 0 5.88422 -0.205119 -2.03857 96.9269 0 0 38.7369 0 0 0 0 0 6.53779 -1.83597 -2.2927 -7.48373 9.43454 -12.6812 
-24.3381 95.8653 -27.0403 0.551845 -1.89524 -0.604228 3.09187 -12.4563 3.96693 8.80111e-020 -2.48499e-017 0.405847 4.78228e-007 36.2957 -8.56718 7.67799e-021 7.33978e-018 -0.119872 -0.185673 -19.851 -0.0324903 4.07352 -0.457537 0.0325838 -5.66998 -13.8009 -5.47871 9.00632e-020 2.5138e-017 -0.410551 -9.82561e-007 36.8439 6.9649 2.84358e-020 1.41251e-017 -0.230689 1.14761 -18.9685 0.187028 -0.00105284 -0.00448366 -8.23896e-008 0.014517 0.726138 0.711027 -0.570035 0.305023 0.579516 -0.572311 0.308828 0.575094 -0.574482 0.312695 0.570674 -2.7 0 -19.4114 -68.6768 5.54141 16.2518 0 5.37802 0 8.10954 12.4259 -33.5128 0 -4.91337 0 -13.0291 2.43009 -21.0439 -11.1549 5.76273 12.9076 -33.033 -1.09055 1.67661 -36.761 0 0 0 0 0 -32.6017 -1.0779 0.768625 -123.167 0 0 -59.2777 0 0 0 0 0 -36.8107 -1.19866 5.70018 -121.96 0 0 -51.6564 0 0 0 0 0 -35.6523 -1.16604 0.154416 -113.12 0 0 -46.6402 0 0 0 0 0 -5.94989 -0.207401 3.42274 -105.959 0 0 -41.8592 0 0 0 0 0 12.9851 1.80858e-015 14.5518 64.3792 3.22639 -15.1624 3.0612e-016 2.49816 -6.67464e-018 -29.9561 36.9486 43.7949 -7.54802e-006 -1.77898 -2.71009e-006 -3.12561 -0.452556 16.4732 11.3051 5.47034 -11.1938 29.5596 -0.986962 -1.7396 26.0712 0 0 0 0 0 30.185 -1.00589 -0.628948 114.1 0 0 53.8446 0 0 0 0 0 33.5312 -1.10509 -3.33007 112.589 0 0 51.1767 0 0 0 0 0 32.961 -1.08845 1.40025 104.311 0 0 43.5523 0 0 0 0 0 5.88422 -0.20512 -2.0055 97.3962 0 0 38.9163 0 0 0 0 0 6.34905 -2.16906 -2.27303 -7.28122 9.83697 -12.7745 
